<svg width="16" height="16" viewBox="0 0 16 16" fill="none" xmlns="http://www.w3.org/2000/svg">
<path d="M2.9366 14.4097L4.75588 12.4934C5.08755 12.1448 5.53698 11.949 6.00554 11.9492H11.8959C12.5984 11.9486 13.2719 11.6544 13.7687 11.1312C14.2655 10.6079 14.5447 9.89845 14.5453 9.15851V4.97246C14.5455 4.23221 14.2663 3.52231 13.7695 2.99893C13.2727 2.47548 12.5987 2.18155 11.8959 2.18176H4.83099C4.12823 2.18156 3.45429 2.47548 2.95742 2.99893C2.46058 3.52228 2.18144 4.23221 2.18164 4.97246V14.0794C2.18184 14.203 2.22846 14.3213 2.31135 14.4087C2.39424 14.496 2.5066 14.5452 2.62379 14.5454C2.74108 14.5455 2.85354 14.4968 2.93672 14.4097L2.9366 14.4097ZM5.94803 5.63306C6.0733 5.23636 6.3549 4.91588 6.72076 4.75391C6.76058 4.73543 6.8002 4.71674 6.84002 4.70283C7.14487 4.60825 7.47231 4.63628 7.75861 4.78153C8.04492 4.92677 8.26996 5.17884 8.38992 5.48885L8.49587 5.74933C8.54604 5.87112 8.68028 5.92728 8.79608 5.87496L9.03894 5.76335V5.76325C9.3289 5.62776 9.65603 5.60918 9.95814 5.71123C10.2602 5.81329 10.5161 6.02882 10.6771 6.31671C10.6948 6.35865 10.717 6.40039 10.7346 6.44233C10.8908 6.82718 10.8828 7.26418 10.7125 7.64239C10.5585 7.97876 10.2908 8.24247 9.96188 8.38179L7.53331 9.47949C7.44312 9.5204 7.34121 9.52175 7.25003 9.48333C7.15896 9.44492 7.08602 9.36986 7.04748 9.27476L6.00992 6.71662C5.86435 6.37557 5.84237 5.99008 5.94803 5.63303L5.94803 5.63306Z" fill="white"/>
</svg>
