<svg width="17" height="15" viewBox="0 0 17 15" fill="none" xmlns="http://www.w3.org/2000/svg">
<path fill-rule="evenodd" clip-rule="evenodd" d="M8.30093 14.2761C2.56756 11.2292 0.307791 7.86112 0.0299624 5.17718C-0.0997479 3.92346 0.199282 2.81411 0.779802 1.94705C1.36321 1.07535 2.23097 0.44986 3.23327 0.167983C4.83432 -0.282523 6.77823 0.140416 8.44925 1.83492C10.1202 0.140572 12.0643 -0.282523 13.6652 0.167983C14.6678 0.450328 15.5353 1.07553 16.1187 1.94705C16.6995 2.81426 16.9984 3.92376 16.8685 5.17718C16.591 7.86161 14.3305 11.2304 8.59533 14.2772C8.49957 14.3278 8.38916 14.3239 8.30051 14.276L8.30093 14.2761ZM5.09387 1.17838C5.26261 1.20856 5.3752 1.37019 5.34488 1.53907C5.3147 1.70781 5.15307 1.8204 4.98419 1.79007C4.84591 1.76526 4.70663 1.74974 4.56822 1.74394L4.56532 1.74365C4.42778 1.73828 4.29212 1.7422 4.16054 1.75467C3.98977 1.77063 3.83771 1.64513 3.82175 1.47436C3.80579 1.30359 3.9313 1.15154 4.10207 1.13558C4.26196 1.12005 4.42561 1.11541 4.59042 1.12208L4.59535 1.12237C4.75771 1.12948 4.92456 1.14791 5.09389 1.17838L5.09387 1.17838ZM3.10268 1.3921C3.2601 1.32434 3.44321 1.39674 3.51095 1.55431C3.57871 1.71173 3.50631 1.89483 3.34874 1.96258C2.77333 2.2117 2.30265 2.66425 2.02408 3.26607C1.76147 3.8341 1.66759 4.53747 1.81327 5.33274C1.84402 5.50148 1.73216 5.66383 1.56342 5.69459C1.39468 5.72535 1.23233 5.61349 1.20157 5.44475C1.03109 4.51488 1.14484 3.68351 1.45852 3.0052C1.80267 2.26205 2.38665 1.70216 3.10254 1.39209L3.10268 1.3921Z" fill="#DA0000"/>
</svg>
