<svg width="195" height="85" viewBox="0 0 195 85" fill="none" xmlns="http://www.w3.org/2000/svg">
<path d="M60.456 23V22.604L61.596 22.364V16.304L60.456 16.064V15.668H65.664V17.252H65.196L64.944 16.292H62.592V19.124H64.332L64.584 18.332H65.016V20.504H64.584L64.296 19.676H62.592V22.328H65.184L65.496 21.236H65.964V23H60.456ZM68.7599 23V22.604L69.8399 22.364V16.304L68.7599 16.064V15.668H71.9159V16.064L70.8359 16.304V19.112L73.3919 16.304L72.6119 16.064V15.668H75.0599V16.064L74.1959 16.304L71.7959 18.944L74.2199 22.364L75.1919 22.604V23H73.4759L70.8359 19.256V22.364L71.9159 22.604V23H68.7599ZM77.1597 23V22.604L78.0237 22.376L80.2677 15.668L80.9637 15.512L83.3277 22.376L84.1917 22.604V23H81.5877V22.604L82.3077 22.4L81.8757 21.176H79.1277L78.7317 22.376L79.5957 22.604V23H77.1597ZM79.2957 20.624H81.6957L80.4717 17.096L79.2957 20.624ZM87.3447 23V22.604L88.6287 22.364V16.292H86.9247L86.6847 17.348H86.2527L86.1567 15.668H92.0847L92.0127 17.348H91.5447L91.3167 16.292H89.6247V22.364L90.8967 22.604V23H87.3447ZM94.4568 23V22.604L95.5968 22.364V16.304L94.4568 16.064V15.668H99.6648V17.252H99.1968L98.9448 16.292H96.5928V19.124H98.3328L98.5848 18.332H99.0168V20.504H98.5848L98.2968 19.676H96.5928V22.328H99.1848L99.4968 21.236H99.9648V23H94.4568ZM102.761 23V22.604L103.877 22.364V16.304L102.761 16.064V15.668H105.677C106.293 15.668 106.789 15.756 107.165 15.932C107.541 16.108 107.813 16.336 107.981 16.616C108.157 16.896 108.245 17.196 108.245 17.516C108.245 17.756 108.193 18.012 108.089 18.284C107.993 18.548 107.821 18.788 107.573 19.004C107.325 19.22 106.969 19.384 106.505 19.496C106.713 19.56 106.877 19.64 106.997 19.736C107.117 19.832 107.225 19.98 107.321 20.18C107.425 20.372 107.557 20.644 107.717 20.996C107.877 21.34 108.101 21.792 108.389 22.352L109.205 22.604V23H107.573C107.253 22.336 106.993 21.796 106.793 21.38C106.601 20.956 106.445 20.624 106.325 20.384C106.205 20.144 106.101 19.976 106.013 19.88C105.925 19.776 105.829 19.712 105.725 19.688C105.621 19.664 105.489 19.652 105.329 19.652H104.873V22.364L105.989 22.604V23H102.761ZM104.873 19.172H105.605C106.125 19.172 106.513 19.024 106.769 18.728C107.025 18.432 107.153 18.052 107.153 17.588C107.153 17.164 107.029 16.824 106.781 16.568C106.533 16.304 106.149 16.172 105.629 16.172C105.517 16.172 105.393 16.184 105.257 16.208C105.129 16.224 105.001 16.252 104.873 16.292V19.172ZM111.229 23V22.604L112.309 22.364V16.304L111.229 16.064V15.668H114.385V16.064L113.305 16.304V22.364L114.385 22.604V23H111.229ZM122.939 23.12L118.751 17.144V22.364L119.783 22.604V23H117.095V22.604L118.055 22.364V16.292L117.095 16.064V15.668H118.871L123.011 21.44V16.292L121.991 16.064V15.668H124.655V16.064L123.683 16.292V23L122.939 23.12ZM126.702 23V22.604L127.566 22.376L129.81 15.668L130.506 15.512L132.87 22.376L133.734 22.604V23H131.13V22.604L131.85 22.4L131.418 21.176H128.67L128.274 22.376L129.138 22.604V23H126.702ZM128.838 20.624H131.238L130.014 17.096L128.838 20.624Z" fill="#1C251E"/>
<path d="M9.21875 27.5625C9.21875 28.7292 9.45833 29.7812 9.9375 30.7188C10.4167 31.6354 11.0625 32.4792 11.875 33.25C12.6875 34 13.6354 34.6979 14.7188 35.3438C15.8229 35.9688 16.9896 36.5833 18.2188 37.1875C19.4479 37.7708 20.7083 38.3542 22 38.9375C23.3125 39.5 24.5833 40.1042 25.8125 40.75C27.0417 41.375 28.1979 42.0625 29.2812 42.8125C30.3854 43.5417 31.3438 44.3646 32.1562 45.2812C32.9688 46.1771 33.6146 47.1875 34.0938 48.3125C34.5729 49.4167 34.8125 50.6667 34.8125 52.0625C34.8125 54.6042 34.3333 56.8125 33.375 58.6875C32.4167 60.5417 31.1354 62.0729 29.5312 63.2812C27.9271 64.5104 26.0625 65.4167 23.9375 66C21.8125 66.6042 19.5938 66.9062 17.2812 66.9062C15.2396 66.9062 13.3125 66.6354 11.5 66.0938C9.6875 65.5729 8.09375 64.8333 6.71875 63.875C5.34375 62.9375 4.25 61.8021 3.4375 60.4688C2.64583 59.1562 2.25 57.7188 2.25 56.1562C2.25 54.7812 2.45833 53.6146 2.875 52.6562C3.3125 51.6771 3.78125 50.875 4.28125 50.25C4.80208 49.625 5.29167 49.1667 5.75 48.875C6.20833 48.5833 6.46875 48.4271 6.53125 48.4062L7.21875 49.875C7.17708 49.8958 6.97917 50.0312 6.625 50.2812C6.27083 50.5104 5.88542 50.875 5.46875 51.375C5.07292 51.875 4.69792 52.5208 4.34375 53.3125C4.01042 54.0833 3.84375 55.0312 3.84375 56.1562C3.84375 57.2812 4.05208 58.2917 4.46875 59.1875C4.90625 60.0625 5.47917 60.8333 6.1875 61.5C6.91667 62.1667 7.73958 62.7396 8.65625 63.2188C9.59375 63.6979 10.5625 64.0833 11.5625 64.375C12.5625 64.6875 13.5625 64.9062 14.5625 65.0312C15.5625 65.1771 16.4896 65.25 17.3438 65.25C19.5521 65.25 21.5521 64.9688 23.3438 64.4062C25.1354 63.8646 26.6562 63.1042 27.9062 62.125C29.1771 61.1667 30.1562 60.0521 30.8438 58.7812C31.5312 57.4896 31.875 56.1042 31.875 54.625C31.875 52.9583 31.5208 51.5208 30.8125 50.3125C30.1042 49.1042 29.1667 48.0417 28 47.125C26.8333 46.1875 25.5 45.3542 24 44.625C22.5208 43.875 21 43.1458 19.4375 42.4375C17.8958 41.7292 16.375 40.9896 14.875 40.2188C13.3958 39.4271 12.0729 38.5208 10.9062 37.5C9.73958 36.4792 8.80208 35.3021 8.09375 33.9688C7.38542 32.6146 7.03125 31.0104 7.03125 29.1562C7.03125 27.0938 7.375 25.2083 8.0625 23.5C8.77083 21.7917 9.72917 20.3229 10.9375 19.0938C12.1667 17.8438 13.6042 16.8854 15.25 16.2188C16.8958 15.5312 18.6771 15.1875 20.5938 15.1875C22.5312 15.1875 24.2292 15.4167 25.6875 15.875C27.1458 16.3125 28.3646 16.9375 29.3438 17.75C30.3438 18.5417 31.0833 19.5 31.5625 20.625C32.0625 21.75 32.3125 22.9896 32.3125 24.3438C32.3125 25.4479 32.1771 26.5312 31.9062 27.5938C31.6562 28.6354 31.375 29.5729 31.0625 30.4062C30.75 31.2396 30.4583 31.9167 30.1875 32.4375C29.9167 32.9583 29.7708 33.25 29.75 33.3125L28.3438 32.5312C28.3438 32.5104 28.4583 32.2604 28.6875 31.7812C28.9375 31.3021 29.2083 30.6771 29.5 29.9062C29.7917 29.1354 30.0521 28.2708 30.2812 27.3125C30.5312 26.3333 30.6562 25.3438 30.6562 24.3438C30.6562 23.2188 30.4479 22.1979 30.0312 21.2812C29.6354 20.3438 29.0208 19.5521 28.1875 18.9062C27.3542 18.2604 26.3021 17.7604 25.0312 17.4062C23.7604 17.0521 22.2604 16.875 20.5312 16.875C18.9271 16.875 17.4375 17.1458 16.0625 17.6875C14.6875 18.2083 13.4896 18.9479 12.4688 19.9062C11.4688 20.8646 10.6771 22 10.0938 23.3125C9.51042 24.6042 9.21875 26.0208 9.21875 27.5625ZM51.125 20.625C51.125 21.9375 50.9688 23.3333 50.6562 24.8125C50.3646 26.2917 49.9688 27.7917 49.4688 29.3125C48.9896 30.8333 48.4271 32.3646 47.7812 33.9062C47.1562 35.4479 46.5208 36.9271 45.875 38.3438C45.2292 39.7604 44.5938 41.1042 43.9688 42.375C43.3438 43.6458 42.7917 44.7812 42.3125 45.7812C42.3958 47.4896 42.5417 49.0312 42.75 50.4062C42.9583 51.7812 43.2188 52.9583 43.5312 53.9375C43.8438 54.8958 44.2188 55.6354 44.6562 56.1562C45.0938 56.6771 45.5938 56.9375 46.1562 56.9375C46.7812 56.9375 47.3958 56.6458 48 56.0625C48.625 55.4792 49.25 54.6562 49.875 53.5938C50.5 52.5312 51.1354 51.25 51.7812 49.75C52.4271 48.25 53.0833 46.5729 53.75 44.7188L54.9688 45.0312C54.4688 46.4688 53.9062 47.9896 53.2812 49.5938C52.6562 51.1771 51.9583 52.6354 51.1875 53.9688C50.4167 55.3021 49.5729 56.4062 48.6562 57.2812C47.7604 58.1562 46.7917 58.5938 45.75 58.5938C44.7083 58.5938 43.8333 58.2708 43.125 57.625C42.4167 56.9792 41.8333 56.1354 41.375 55.0938C40.9167 54.0312 40.5625 52.8333 40.3125 51.5C40.0625 50.1458 39.875 48.7708 39.75 47.375C39.625 45.9792 39.5521 44.625 39.5312 43.3125C39.5104 41.9792 39.5 40.8021 39.5 39.7812C39.5 37.8854 39.5729 36 39.7188 34.125C39.8854 32.25 40.125 30.4583 40.4375 28.75C40.7708 27.0417 41.1667 25.4583 41.625 24C42.0833 22.5208 42.6146 21.25 43.2188 20.1875C43.8438 19.1042 44.5208 18.2604 45.25 17.6562C46 17.0521 46.8125 16.75 47.6875 16.75C48.3125 16.75 48.8438 16.8542 49.2812 17.0625C49.7188 17.2708 50.0729 17.5521 50.3438 17.9062C50.6146 18.2604 50.8125 18.6771 50.9375 19.1562C51.0625 19.6146 51.125 20.1042 51.125 20.625ZM42.125 38.625C42.125 39.4167 42.125 40.1979 42.125 40.9688C42.125 41.7188 42.1458 42.4479 42.1875 43.1562C42.7083 42.1146 43.2604 40.9792 43.8438 39.75C44.4271 38.5 45 37.2188 45.5625 35.9062C46.1458 34.5729 46.6979 33.2292 47.2188 31.875C47.7396 30.5208 48.1979 29.1979 48.5938 27.9062C48.9896 26.5938 49.3021 25.3542 49.5312 24.1875C49.7812 23 49.9062 21.9271 49.9062 20.9688C49.9062 20.6562 49.875 20.3229 49.8125 19.9688C49.7708 19.6146 49.6771 19.2917 49.5312 19C49.4062 18.6875 49.2188 18.4375 48.9688 18.25C48.7188 18.0417 48.3958 17.9375 48 17.9375C47.2083 17.9375 46.4479 18.4583 45.7188 19.5C45.0104 20.5208 44.3854 21.9479 43.8438 23.7812C43.3229 25.6146 42.9062 27.8021 42.5938 30.3438C42.2812 32.8646 42.125 35.625 42.125 38.625ZM77.8125 45.0312C76.9583 47.3438 76.1771 49.2812 75.4688 50.8438C74.7812 52.4062 74.1042 53.6667 73.4375 54.625C72.7917 55.5833 72.1458 56.2708 71.5 56.6875C70.8542 57.1042 70.1458 57.3125 69.375 57.3125C68.4375 57.3125 67.6354 56.9896 66.9688 56.3438C66.3021 55.6771 65.8854 54.6562 65.7188 53.2812C65.0521 54.7188 64.1875 55.8958 63.125 56.8125C62.0625 57.7083 60.7292 58.1562 59.125 58.1562C58.2708 58.1562 57.4479 58 56.6562 57.6875C55.8854 57.375 55.1979 56.8958 54.5938 56.25C53.9896 55.5833 53.5 54.75 53.125 53.75C52.7708 52.75 52.5938 51.5729 52.5938 50.2188C52.5938 48.8438 52.7604 47.5521 53.0938 46.3438C53.4479 45.1354 53.9062 44.0312 54.4688 43.0312C55.0312 42.0104 55.6771 41.1042 56.4062 40.3125C57.1562 39.5208 57.9271 38.8542 58.7188 38.3125C59.5104 37.7708 60.3021 37.3542 61.0938 37.0625C61.8854 36.7708 62.6146 36.625 63.2812 36.625C63.8646 36.625 64.4271 36.6979 64.9688 36.8438C65.5104 36.9896 65.9896 37.2292 66.4062 37.5625C66.8438 37.875 67.1875 38.3021 67.4375 38.8438C67.7083 39.3854 67.8438 40.0625 67.8438 40.875C67.8438 41.8333 67.6562 42.6667 67.2812 43.375C66.9271 44.0833 66.4896 44.6771 65.9688 45.1562C65.4688 45.6354 64.9479 46.0208 64.4062 46.3125C63.8854 46.6042 63.4688 46.8125 63.1562 46.9375L62.7812 45.7188C62.8438 45.7188 63.0729 45.6354 63.4688 45.4688C63.8854 45.3021 64.3125 45.0312 64.75 44.6562C65.2083 44.2604 65.625 43.7604 66 43.1562C66.375 42.5521 66.5625 41.8125 66.5625 40.9375C66.5625 39.9375 66.2812 39.1771 65.7188 38.6562C65.1562 38.1146 64.4375 37.8438 63.5625 37.8438C62.8958 37.8438 62.1146 38.0833 61.2188 38.5625C60.3229 39.0417 59.4583 39.7917 58.625 40.8125C57.8125 41.8333 57.1146 43.125 56.5312 44.6875C55.9688 46.25 55.6875 48.1146 55.6875 50.2812C55.6875 52.4271 56.0625 54.0625 56.8125 55.1875C57.5833 56.3125 58.6146 56.875 59.9062 56.875C60.5521 56.875 61.1667 56.6979 61.75 56.3438C62.3542 55.9688 62.9062 55.4792 63.4062 54.875C63.9062 54.2708 64.3542 53.5729 64.75 52.7812C65.1458 51.9688 65.4896 51.1354 65.7812 50.2812C65.7812 49.6146 65.8542 48.8333 66 47.9375C66.1667 47.0208 66.4167 46.0938 66.75 45.1562L68.6562 45.7812C68.5521 46.0521 68.4479 46.4062 68.3438 46.8438C68.2396 47.2812 68.1354 47.7604 68.0312 48.2812C67.9479 48.8021 67.875 49.3438 67.8125 49.9062C67.75 50.4479 67.7188 50.9792 67.7188 51.5C67.7188 53.125 67.875 54.25 68.1875 54.875C68.5208 55.4792 69.0833 55.7812 69.875 55.7812C70.3333 55.7812 70.7812 55.6146 71.2188 55.2812C71.6771 54.9479 72.1667 54.3646 72.6875 53.5312C73.2083 52.6979 73.7812 51.5729 74.4062 50.1562C75.0312 48.7188 75.7604 46.9062 76.5938 44.7188L77.8125 45.0312ZM98.6562 45.0312C98.0104 46.5729 97.3958 47.8958 96.8125 49C96.25 50.1042 95.6875 51.0208 95.125 51.75C94.5625 52.4583 93.9792 52.9896 93.375 53.3438C92.7917 53.6771 92.1562 53.8438 91.4688 53.8438C90.5312 53.8438 89.7292 53.5521 89.0625 52.9688C88.4167 52.3646 88.0312 51.6146 87.9062 50.7188C87.3229 52.0729 86.7083 53.2917 86.0625 54.375C85.4167 55.4375 84.7708 56.3438 84.125 57.0938C83.4792 57.8438 82.8542 58.4271 82.25 58.8438C81.6458 59.2396 81.1146 59.4375 80.6562 59.4375C80.2812 59.4375 79.8125 59.2812 79.25 58.9688C78.7083 58.6562 78.1875 58.1354 77.6875 57.4062C77.1875 56.6771 76.7604 55.7188 76.4062 54.5312C76.0521 53.3229 75.875 51.8438 75.875 50.0938C75.875 48.9479 75.9479 47.8958 76.0938 46.9375C76.2604 45.9583 76.4375 45.1146 76.625 44.4062C76.8542 43.5729 77.1146 42.8229 77.4062 42.1562L78.625 42.2812C78.5208 43.1771 78.4479 44.0521 78.4062 44.9062C78.3854 45.7396 78.375 46.5417 78.375 47.3125C78.375 49.0417 78.4583 50.5833 78.625 51.9375C78.7917 53.2917 78.9896 54.4375 79.2188 55.375C79.4688 56.2917 79.7396 57 80.0312 57.5C80.3229 57.9792 80.5938 58.2188 80.8438 58.2188C81.1354 58.2188 81.5417 57.9896 82.0625 57.5312C82.5833 57.0521 83.1562 56.3958 83.7812 55.5625C84.4062 54.7292 85.0417 53.75 85.6875 52.625C86.3333 51.5 86.9167 50.2917 87.4375 49C87.375 48.6042 87.3021 48.125 87.2188 47.5625C87.1562 46.9792 87.125 46.4792 87.125 46.0625C87.125 44.6875 87.2396 43.5833 87.4688 42.75C87.7188 41.9167 88 41.2812 88.3125 40.8438C88.6458 40.4062 88.9792 40.125 89.3125 40C89.6458 39.8542 89.8958 39.7812 90.0625 39.7812C90.625 39.7812 90.9062 40.2083 90.9062 41.0625C90.9062 41.5 90.8438 42.0312 90.7188 42.6562C90.6146 43.2812 90.4688 43.9375 90.2812 44.625C90.1146 45.3125 89.9167 46 89.6875 46.6875C89.4583 47.375 89.2188 48.0104 88.9688 48.5938C88.9688 49.3229 89.0417 49.9375 89.1875 50.4375C89.3542 50.9167 89.5625 51.3125 89.8125 51.625C90.0833 51.9167 90.3854 52.125 90.7188 52.25C91.0521 52.375 91.3958 52.4375 91.75 52.4375C92.6458 52.4375 93.5521 51.8125 94.4688 50.5625C95.3854 49.2917 96.375 47.3438 97.4375 44.7188L98.6562 45.0312ZM97.4375 44.7188C97.75 43.9062 98.0833 43.1354 98.4375 42.4062C98.8125 41.6562 99.2083 41 99.625 40.4375C100.042 39.875 100.49 39.4271 100.969 39.0938C101.469 38.7396 102.021 38.5625 102.625 38.5625C102.917 38.5625 103.25 38.625 103.625 38.75C104 38.875 104.354 39.125 104.688 39.5C105.042 39.875 105.333 40.4167 105.562 41.125C105.792 41.8333 105.906 42.7708 105.906 43.9375C105.906 44.5417 105.875 45.2083 105.812 45.9375C105.75 46.6667 105.688 47.3854 105.625 48.0938C106.271 46.7188 106.906 45.5625 107.531 44.625C108.177 43.6667 108.802 42.9062 109.406 42.3438C110.031 41.7604 110.646 41.3438 111.25 41.0938C111.854 40.8229 112.458 40.6875 113.062 40.6875C113.333 40.6875 113.646 40.75 114 40.875C114.375 41 114.719 41.2188 115.031 41.5312C115.365 41.8438 115.635 42.2708 115.844 42.8125C116.073 43.3542 116.188 44.0521 116.188 44.9062C116.188 45.5938 116.135 46.2812 116.031 46.9688C115.927 47.6562 115.812 48.3229 115.688 48.9688C115.562 49.6146 115.448 50.2292 115.344 50.8125C115.24 51.375 115.188 51.875 115.188 52.3125C115.188 53.3542 115.375 54.1562 115.75 54.7188C116.125 55.2604 116.698 55.5312 117.469 55.5312C118.094 55.5312 118.688 55.3021 119.25 54.8438C119.812 54.3646 120.333 53.7604 120.812 53.0312C121.312 52.3021 121.76 51.5 122.156 50.625C122.573 49.75 122.927 48.9167 123.219 48.125C123.531 47.3125 123.792 46.6042 124 46C124.208 45.375 124.354 44.9479 124.438 44.7188L125.656 45.0312C125.365 45.7604 125.052 46.5729 124.719 47.4688C124.406 48.3438 124.052 49.2292 123.656 50.125C123.26 51.0208 122.833 51.8958 122.375 52.75C121.917 53.5833 121.406 54.3229 120.844 54.9688C120.281 55.6146 119.667 56.1354 119 56.5312C118.354 56.9271 117.635 57.125 116.844 57.125C116.177 57.125 115.594 57 115.094 56.75C114.615 56.4792 114.208 56.125 113.875 55.6875C113.542 55.25 113.292 54.7292 113.125 54.125C112.958 53.5208 112.875 52.875 112.875 52.1875C112.875 51.4167 112.938 50.625 113.062 49.8125C113.208 49 113.354 48.2188 113.5 47.4688C113.667 46.7188 113.812 46.0312 113.938 45.4062C114.083 44.7604 114.156 44.2292 114.156 43.8125C114.156 43.1667 114.031 42.6875 113.781 42.375C113.531 42.0417 113.188 41.875 112.75 41.875C112.146 41.875 111.552 42.0938 110.969 42.5312C110.406 42.9688 109.854 43.5521 109.312 44.2812C108.792 45.0104 108.292 45.8438 107.812 46.7812C107.333 47.7188 106.885 48.6875 106.469 49.6875C106.073 50.6667 105.698 51.6458 105.344 52.625C105.01 53.6042 104.719 54.4896 104.469 55.2812C104.219 56.0729 104 56.75 103.812 57.3125C103.646 57.8542 103.531 58.1979 103.469 58.3438L101.656 58.0312C101.906 56.8021 102.135 55.5104 102.344 54.1562C102.552 52.7812 102.729 51.4375 102.875 50.125C103.042 48.7917 103.167 47.5208 103.25 46.3125C103.354 45.1042 103.406 44.0312 103.406 43.0938C103.406 41.8229 103.323 40.9688 103.156 40.5312C102.99 40.0729 102.688 39.8438 102.25 39.8438C101.875 39.8438 101.521 39.9896 101.188 40.2812C100.854 40.5521 100.542 40.9271 100.25 41.4062C99.9792 41.8646 99.7083 42.4062 99.4375 43.0312C99.1667 43.6562 98.9062 44.3229 98.6562 45.0312L97.4375 44.7188ZM148.5 45.0312C147.646 47.3438 146.865 49.2812 146.156 50.8438C145.469 52.4062 144.792 53.6667 144.125 54.625C143.479 55.5833 142.833 56.2708 142.188 56.6875C141.542 57.1042 140.833 57.3125 140.062 57.3125C139.125 57.3125 138.323 56.9896 137.656 56.3438C136.99 55.6771 136.573 54.6562 136.406 53.2812C135.74 54.7188 134.875 55.8958 133.812 56.8125C132.75 57.7083 131.417 58.1562 129.812 58.1562C128.958 58.1562 128.135 58 127.344 57.6875C126.573 57.375 125.885 56.8958 125.281 56.25C124.677 55.5833 124.188 54.75 123.812 53.75C123.458 52.75 123.281 51.5729 123.281 50.2188C123.281 48.8438 123.448 47.5521 123.781 46.3438C124.135 45.1354 124.594 44.0312 125.156 43.0312C125.719 42.0104 126.365 41.1042 127.094 40.3125C127.844 39.5208 128.615 38.8542 129.406 38.3125C130.198 37.7708 130.99 37.3542 131.781 37.0625C132.573 36.7708 133.302 36.625 133.969 36.625C134.552 36.625 135.115 36.6979 135.656 36.8438C136.198 36.9896 136.677 37.2292 137.094 37.5625C137.531 37.875 137.875 38.3021 138.125 38.8438C138.396 39.3854 138.531 40.0625 138.531 40.875C138.531 41.8333 138.344 42.6667 137.969 43.375C137.615 44.0833 137.177 44.6771 136.656 45.1562C136.156 45.6354 135.635 46.0208 135.094 46.3125C134.573 46.6042 134.156 46.8125 133.844 46.9375L133.469 45.7188C133.531 45.7188 133.76 45.6354 134.156 45.4688C134.573 45.3021 135 45.0312 135.438 44.6562C135.896 44.2604 136.312 43.7604 136.688 43.1562C137.062 42.5521 137.25 41.8125 137.25 40.9375C137.25 39.9375 136.969 39.1771 136.406 38.6562C135.844 38.1146 135.125 37.8438 134.25 37.8438C133.583 37.8438 132.802 38.0833 131.906 38.5625C131.01 39.0417 130.146 39.7917 129.312 40.8125C128.5 41.8333 127.802 43.125 127.219 44.6875C126.656 46.25 126.375 48.1146 126.375 50.2812C126.375 52.4271 126.75 54.0625 127.5 55.1875C128.271 56.3125 129.302 56.875 130.594 56.875C131.24 56.875 131.854 56.6979 132.438 56.3438C133.042 55.9688 133.594 55.4792 134.094 54.875C134.594 54.2708 135.042 53.5729 135.438 52.7812C135.833 51.9688 136.177 51.1354 136.469 50.2812C136.469 49.6146 136.542 48.8333 136.688 47.9375C136.854 47.0208 137.104 46.0938 137.438 45.1562L139.344 45.7812C139.24 46.0521 139.135 46.4062 139.031 46.8438C138.927 47.2812 138.823 47.7604 138.719 48.2812C138.635 48.8021 138.562 49.3438 138.5 49.9062C138.438 50.4479 138.406 50.9792 138.406 51.5C138.406 53.125 138.562 54.25 138.875 54.875C139.208 55.4792 139.771 55.7812 140.562 55.7812C141.021 55.7812 141.469 55.6146 141.906 55.2812C142.365 54.9479 142.854 54.3646 143.375 53.5312C143.896 52.6979 144.469 51.5729 145.094 50.1562C145.719 48.7188 146.448 46.9062 147.281 44.7188L148.5 45.0312ZM158.594 59.2812C158.594 56.6146 158.719 54.125 158.969 51.8125C158.323 52.9792 157.698 53.9375 157.094 54.6875C156.49 55.4375 155.885 56.0312 155.281 56.4688C154.698 56.9062 154.104 57.2083 153.5 57.375C152.896 57.5417 152.281 57.625 151.656 57.625C151.156 57.625 150.583 57.5521 149.938 57.4062C149.312 57.2396 148.719 56.9167 148.156 56.4375C147.594 55.9583 147.115 55.2812 146.719 54.4062C146.344 53.5104 146.156 52.3229 146.156 50.8438C146.156 49.3021 146.344 47.8438 146.719 46.4688C147.094 45.0729 147.521 43.8438 148 42.7812C148.542 41.5312 149.167 40.375 149.875 39.3125L151.031 39.7188C150.99 39.7812 150.854 40.1667 150.625 40.875C150.396 41.5625 150.146 42.4375 149.875 43.5C149.625 44.5417 149.385 45.6979 149.156 46.9688C148.948 48.2188 148.844 49.4271 148.844 50.5938C148.844 52.3438 149.156 53.7396 149.781 54.7812C150.427 55.8229 151.333 56.3438 152.5 56.3438C153.125 56.3438 153.74 56.1354 154.344 55.7188C154.948 55.3021 155.542 54.7292 156.125 54C156.708 53.25 157.292 52.375 157.875 51.375C158.458 50.3542 159.031 49.2396 159.594 48.0312C159.99 45.9688 160.458 44.1354 161 42.5312C161.562 40.9271 162.146 39.5625 162.75 38.4375L163.906 38.75C163.49 40.5625 163.125 42.3646 162.812 44.1562C162.5 45.9271 162.229 47.6562 162 49.3438C161.792 51.0312 161.625 52.6667 161.5 54.25C161.375 55.8125 161.281 57.2812 161.219 58.6562C162.115 58.0104 162.948 57.2917 163.719 56.5C164.51 55.7083 165.281 54.7708 166.031 53.6875C166.781 52.6042 167.521 51.3333 168.25 49.875C169 48.4167 169.771 46.6979 170.562 44.7188L171.781 45.0312C170.969 47.1354 170.177 48.9688 169.406 50.5312C168.656 52.0729 167.865 53.4375 167.031 54.625C166.219 55.7917 165.344 56.8333 164.406 57.75C163.469 58.6667 162.406 59.5417 161.219 60.375C161.156 62.6667 160.948 64.6875 160.594 66.4375C160.24 68.1875 159.802 69.7083 159.281 71C158.76 72.3125 158.177 73.4062 157.531 74.2812C156.885 75.1562 156.24 75.8646 155.594 76.4062C154.948 76.9479 154.312 77.3333 153.688 77.5625C153.083 77.7917 152.562 77.9062 152.125 77.9062C151.354 77.9062 150.656 77.7396 150.031 77.4062C149.427 77.0938 148.906 76.6771 148.469 76.1562C148.031 75.6354 147.698 75.0417 147.469 74.375C147.24 73.7083 147.125 73.0312 147.125 72.3438C147.125 71.1562 147.406 70.0312 147.969 68.9688C148.552 67.9271 149.323 66.9375 150.281 66C151.24 65.0625 152.333 64.1771 153.562 63.3438C154.812 62.5312 156.104 61.7604 157.438 61.0312C157.833 60.7604 158.219 60.5417 158.594 60.375V59.2812ZM152.188 76.625C152.854 76.625 153.531 76.3542 154.219 75.8125C154.927 75.2917 155.573 74.4479 156.156 73.2812C156.76 72.1354 157.271 70.6458 157.688 68.8125C158.125 67 158.406 64.8125 158.531 62.25C158.469 62.2917 158.396 62.3229 158.312 62.3438C158.25 62.3854 158.188 62.4375 158.125 62.5C157.062 63.1667 156.01 63.8958 154.969 64.6875C153.927 65.5 152.99 66.3646 152.156 67.2812C151.344 68.1979 150.677 69.1562 150.156 70.1562C149.635 71.1771 149.375 72.2292 149.375 73.3125C149.375 73.6875 149.438 74.0729 149.562 74.4688C149.708 74.8646 149.906 75.2188 150.156 75.5312C150.406 75.8646 150.698 76.125 151.031 76.3125C151.385 76.5208 151.771 76.625 152.188 76.625ZM194.625 45.0312C193.771 47.3438 192.99 49.2812 192.281 50.8438C191.594 52.4062 190.917 53.6667 190.25 54.625C189.604 55.5833 188.958 56.2708 188.312 56.6875C187.667 57.1042 186.958 57.3125 186.188 57.3125C185.25 57.3125 184.448 56.9896 183.781 56.3438C183.115 55.6771 182.698 54.6562 182.531 53.2812C181.865 54.7188 181 55.8958 179.938 56.8125C178.875 57.7083 177.542 58.1562 175.938 58.1562C175.083 58.1562 174.26 58 173.469 57.6875C172.698 57.375 172.01 56.8958 171.406 56.25C170.802 55.5833 170.312 54.75 169.938 53.75C169.583 52.75 169.406 51.5729 169.406 50.2188C169.406 48.8438 169.573 47.5521 169.906 46.3438C170.26 45.1354 170.719 44.0312 171.281 43.0312C171.844 42.0104 172.49 41.1042 173.219 40.3125C173.969 39.5208 174.74 38.8542 175.531 38.3125C176.323 37.7708 177.115 37.3542 177.906 37.0625C178.698 36.7708 179.427 36.625 180.094 36.625C180.677 36.625 181.24 36.6979 181.781 36.8438C182.323 36.9896 182.802 37.2292 183.219 37.5625C183.656 37.875 184 38.3021 184.25 38.8438C184.521 39.3854 184.656 40.0625 184.656 40.875C184.656 41.8333 184.469 42.6667 184.094 43.375C183.74 44.0833 183.302 44.6771 182.781 45.1562C182.281 45.6354 181.76 46.0208 181.219 46.3125C180.698 46.6042 180.281 46.8125 179.969 46.9375L179.594 45.7188C179.656 45.7188 179.885 45.6354 180.281 45.4688C180.698 45.3021 181.125 45.0312 181.562 44.6562C182.021 44.2604 182.438 43.7604 182.812 43.1562C183.188 42.5521 183.375 41.8125 183.375 40.9375C183.375 39.9375 183.094 39.1771 182.531 38.6562C181.969 38.1146 181.25 37.8438 180.375 37.8438C179.708 37.8438 178.927 38.0833 178.031 38.5625C177.135 39.0417 176.271 39.7917 175.438 40.8125C174.625 41.8333 173.927 43.125 173.344 44.6875C172.781 46.25 172.5 48.1146 172.5 50.2812C172.5 52.4271 172.875 54.0625 173.625 55.1875C174.396 56.3125 175.427 56.875 176.719 56.875C177.365 56.875 177.979 56.6979 178.562 56.3438C179.167 55.9688 179.719 55.4792 180.219 54.875C180.719 54.2708 181.167 53.5729 181.562 52.7812C181.958 51.9688 182.302 51.1354 182.594 50.2812C182.594 49.6146 182.667 48.8333 182.812 47.9375C182.979 47.0208 183.229 46.0938 183.562 45.1562L185.469 45.7812C185.365 46.0521 185.26 46.4062 185.156 46.8438C185.052 47.2812 184.948 47.7604 184.844 48.2812C184.76 48.8021 184.688 49.3438 184.625 49.9062C184.562 50.4479 184.531 50.9792 184.531 51.5C184.531 53.125 184.688 54.25 185 54.875C185.333 55.4792 185.896 55.7812 186.688 55.7812C187.146 55.7812 187.594 55.6146 188.031 55.2812C188.49 54.9479 188.979 54.3646 189.5 53.5312C190.021 52.6979 190.594 51.5729 191.219 50.1562C191.844 48.7188 192.573 46.9062 193.406 44.7188L194.625 45.0312Z" fill="#1C251E"/>
</svg>
