<svg width="32" height="32" viewBox="0 0 32 32" fill="none" xmlns="http://www.w3.org/2000/svg">
<path d="M16 0C7.17755 0 0 7.17755 0 16C0 24.8224 7.17755 32 16 32C24.8224 32 32 24.8224 32 16C32 7.17755 24.8224 0 16 0ZM16 30.1694C8.18703 30.1694 1.83059 23.813 1.83059 16C1.83059 8.18703 8.18703 1.83059 16 1.83059C23.813 1.83059 30.1694 8.18703 30.1694 16C30.1694 23.813 23.813 30.1694 16 30.1694Z" fill="black"/>
<path d="M20.3884 7.79446C16.8859 5.11355 12.0675 5.50448 9.64754 8.66602C7.81318 11.0626 7.82996 14.5071 9.68934 17.2374C9.97389 17.6549 10.5431 17.7633 10.9611 17.4786C11.3789 17.194 11.4869 16.6247 11.2023 16.2068C9.78829 14.1304 9.74751 11.5472 11.1011 9.77872C12.9077 7.41857 16.5748 7.1806 19.2758 9.24795C21.9768 11.3154 22.7046 14.9175 20.8981 17.2775C19.5025 19.1008 16.9643 19.6983 14.5714 18.8241L15.7581 13.1876C15.8622 12.6929 15.5456 12.2074 15.051 12.1034C14.5554 11.999 14.0708 12.3158 13.9668 12.8104L11.526 24.4041C11.4219 24.8988 11.7385 25.3843 12.2331 25.4884C12.2967 25.5018 12.3601 25.5082 12.4225 25.5082C12.8462 25.5082 13.2266 25.2124 13.3173 24.7813L14.1912 20.6304C15.0465 20.9138 15.9154 21.0527 16.764 21.0527C18.9629 21.0527 21.0244 20.1243 22.3517 18.3901C24.7716 15.2286 23.891 10.4754 20.3884 7.79446Z" fill="black"/>
</svg>
