<svg width="16" height="16" viewBox="0 0 16 16" fill="none" xmlns="http://www.w3.org/2000/svg">
<path fill-rule="evenodd" clip-rule="evenodd" d="M14.9904 4.37067L14.5788 7.96373C14.5561 8.16312 14.4963 8.34655 14.4019 8.51026C14.3079 8.67308 14.1802 8.81414 14.0214 8.92977L10.1754 11.72C10.1178 10.8609 9.76196 10.0861 9.21466 9.50667L9.18899 9.47768C8.57461 8.84101 7.72501 8.44666 6.78713 8.44666C5.84913 8.44666 4.99964 8.84101 4.38527 9.47962C3.91217 9.97 3.57795 10.6043 3.44912 11.3132L2.30582 9.62105C2.03813 9.22452 1.95062 8.75206 2.02589 8.31023C2.10095 7.86796 2.33925 7.45437 2.72222 7.17663L9.50928 2.25167C9.66912 2.13573 9.84079 2.05897 10.0195 2.02353C10.1994 1.98786 10.3857 1.99262 10.5751 2.0387L13.9738 2.8665C14.3042 2.94677 14.5786 3.14809 14.76 3.41633C14.9415 3.68603 15.0304 4.02229 14.9904 4.37067ZM6.78688 15C5.17026 15 3.86004 13.6422 3.86004 11.9669C3.86004 10.2917 5.17029 8.93388 6.78688 8.93388C8.40349 8.93388 9.71372 10.2918 9.71372 11.9669C9.71372 13.6421 8.40347 15 6.78688 15ZM7.86003 10.7052C7.90701 10.8302 7.84746 10.9713 7.72684 11.02C7.60622 11.0686 7.47008 11.0069 7.42311 10.8819C7.36673 10.7337 7.26402 10.6156 7.13814 10.5422C7.01217 10.4686 6.86117 10.4385 6.70854 10.4651C6.55722 10.4916 6.42478 10.5713 6.32876 10.6839C6.23326 10.7973 6.17295 10.9439 6.16683 11.1023C6.1605 11.2627 6.21065 11.4142 6.31914 11.532C6.42698 11.6491 6.59535 11.7385 6.8272 11.7803C7.16341 11.8411 7.41906 11.9827 7.59398 12.173C7.79382 12.3901 7.88625 12.6658 7.87467 12.9568C7.86396 13.2314 7.76126 13.483 7.5966 13.6764C7.44877 13.8505 7.24991 13.979 7.02178 14.0365V14.4343C7.02178 14.5687 6.91656 14.6777 6.78687 14.6777C6.65718 14.6777 6.55196 14.5687 6.55196 14.4343V14.0501C6.42981 14.0265 6.3129 13.982 6.20583 13.9193C5.98774 13.7918 5.81052 13.589 5.71349 13.3342C5.66651 13.2092 5.72605 13.0681 5.84668 13.0194C5.9673 12.9707 6.10344 13.0324 6.15041 13.1574C6.20679 13.3056 6.30927 13.4237 6.43515 13.4971C6.56113 13.5707 6.71212 13.6008 6.86486 13.5742C7.01564 13.5479 7.14795 13.4678 7.24389 13.3551C7.34026 13.2418 7.40035 13.0957 7.40647 12.9376C7.41281 12.7769 7.36266 12.6254 7.25416 12.5078C7.14654 12.3906 6.97795 12.3012 6.74633 12.2595C6.41012 12.1986 6.15469 12.0568 5.97932 11.8667C5.77948 11.6496 5.68705 11.3739 5.69863 11.0832C5.70934 10.8088 5.81205 10.5567 5.97648 10.363C6.12573 10.1891 6.32427 10.0605 6.55161 10.003V9.49958C6.55161 9.36519 6.65683 9.25615 6.78652 9.25615C6.91621 9.25615 7.02143 9.36519 7.02143 9.49958V9.98962C7.14336 10.0132 7.26027 10.0577 7.36723 10.1202C7.58553 10.2477 7.76314 10.4505 7.86003 10.7052ZM13.4052 4.37705C13.3008 4.23133 13.1493 4.14007 12.9876 4.11052C12.8253 4.08096 12.6527 4.11301 12.5064 4.21287L12.4763 4.23472C12.3356 4.34285 12.2478 4.49967 12.2193 4.66748C12.1908 4.83528 12.2215 5.01394 12.3178 5.16534L12.3395 5.19738C12.4436 5.34287 12.5948 5.43413 12.7565 5.46369C12.9188 5.49324 13.0909 5.46119 13.2373 5.36156L13.2681 5.33914C13.4084 5.23123 13.4965 5.07442 13.525 4.90685C13.5537 4.73893 13.5226 4.56003 13.4263 4.40844L13.4052 4.37705Z" fill="white"/>
</svg>
