<svg width="16" height="16" viewBox="0 0 16 16" fill="none" xmlns="http://www.w3.org/2000/svg">
<path fill-rule="evenodd" clip-rule="evenodd" d="M4.73129 4.51221H8.68257C8.80375 4.51221 8.90205 4.41409 8.90205 4.29273C8.90205 4.17136 8.80375 4.07324 8.68257 4.07324H4.73129C4.61011 4.07324 4.51172 4.17136 4.51172 4.29273C4.51172 4.41409 4.61011 4.51221 4.73129 4.51221" fill="white"/>
<path fill-rule="evenodd" clip-rule="evenodd" d="M4.73129 5.39048H6.04839C6.16957 5.39048 6.26787 5.29235 6.26787 5.1709C6.26787 5.04953 6.16957 4.95142 6.04839 4.95142H4.73129C4.61011 4.95142 4.51172 5.04954 4.51172 5.1709C4.51172 5.29236 4.61011 5.39048 4.73129 5.39048" fill="white"/>
<path fill-rule="evenodd" clip-rule="evenodd" d="M9.56099 4.95142H8.2439C8.12272 4.95142 8.02441 5.04954 8.02441 5.1709C8.02441 5.29236 8.12272 5.39048 8.2439 5.39048H9.56099C9.68217 5.39048 9.78047 5.29235 9.78047 5.1709C9.78047 5.04953 9.68217 4.95142 9.56099 4.95142Z" fill="white"/>
<path fill-rule="evenodd" clip-rule="evenodd" d="M6.99043 5.01514C6.95092 5.05684 6.92676 5.1139 6.92676 5.17095C6.92676 5.2281 6.95092 5.28515 6.99043 5.32686C7.03213 5.36637 7.08919 5.39053 7.14624 5.39053C7.20339 5.39053 7.26044 5.36637 7.30215 5.32686C7.34166 5.28515 7.36582 5.2281 7.36582 5.17095C7.36582 5.1139 7.34166 5.05684 7.30215 5.01514C7.21873 4.93392 7.07385 4.93392 6.99042 5.01514" fill="white"/>
<path fill-rule="evenodd" clip-rule="evenodd" d="M8.24361 5.82935H5.82886C5.70768 5.82935 5.60938 5.92747 5.60938 6.04892C5.60938 6.17029 5.70768 6.26841 5.82886 6.26841H8.24361C8.36479 6.26841 8.46309 6.17028 8.46309 6.04892C8.46309 5.92746 8.36479 5.82935 8.24361 5.82935Z" fill="white"/>
<path fill-rule="evenodd" clip-rule="evenodd" d="M4.57539 5.89316C4.53588 5.93487 4.51172 5.99192 4.51172 6.04907C4.51172 6.10612 4.53588 6.16318 4.57539 6.20489C4.6171 6.24641 4.67415 6.26855 4.73129 6.26855C4.78835 6.26855 4.8454 6.24439 4.88711 6.20489C4.92662 6.16318 4.95078 6.10612 4.95078 6.04907C4.95078 5.99192 4.92662 5.93487 4.88711 5.89536C4.8081 5.81194 4.65881 5.81194 4.57538 5.89316" fill="white"/>
<path fill-rule="evenodd" clip-rule="evenodd" d="M13.6612 5.82935H12.7049C12.424 5.82935 12.1952 6.05812 12.1952 6.33907V6.70748H11.5367V1H3.4147V6.70748H1.87803V7.58551H1.43906V6.04893H2.09761C2.21879 6.04893 2.31709 5.95081 2.31709 5.82935C2.31709 5.70799 2.21879 5.60987 2.09761 5.60987H1V8.02462H1.87803V8.90265H2.53658V10.4392C2.53658 11.1015 2.40428 11.7326 2.17376 12.1954H2.0976V13.5125H2.53657V14.171H4.29272V13.5125H10.8782V14.171H12.6343V13.5125H13.0733V12.1954H12.9974C12.7666 11.7329 12.6343 11.1017 12.6343 10.4392V8.90265H13.6612C13.9421 8.90265 14.1709 8.67388 14.1709 8.39293V6.33912C14.1709 6.05818 13.9421 5.8294 13.6612 5.8294L13.6612 5.82935ZM3.85353 1.4392H11.0975V6.70757H3.85353V1.4392ZM9.561 7.58555V8.46358C9.561 8.58504 9.4627 8.68316 9.34152 8.68316C9.22034 8.68316 9.12194 8.58504 9.12194 8.46358V7.58555C9.12194 7.46419 9.22034 7.36607 9.34152 7.36607C9.4627 7.36607 9.561 7.46419 9.561 7.58555ZM8.68297 7.58555V8.46358C8.68297 8.58504 8.58458 8.68316 8.4634 8.68316C8.34222 8.68316 8.24391 8.58504 8.24391 8.46358V7.58555C8.24391 7.46419 8.34222 7.36607 8.4634 7.36607C8.58458 7.36607 8.68297 7.46419 8.68297 7.58555ZM7.80485 7.58555V8.46358C7.80485 8.58504 7.70654 8.68316 7.58537 8.68316C7.46419 8.68316 7.36588 8.58504 7.36588 8.46358V7.58555C7.36588 7.46419 7.46419 7.36607 7.58537 7.36607C7.70654 7.36607 7.80485 7.46419 7.80485 7.58555ZM6.92682 7.58555V8.46358C6.92682 8.58504 6.82851 8.68316 6.70734 8.68316C6.58616 8.68316 6.48776 8.58504 6.48776 8.46358V7.58555C6.48776 7.46419 6.58616 7.36607 6.70734 7.36607C6.82851 7.36607 6.92682 7.46419 6.92682 7.58555ZM6.04879 7.58555V8.46358C6.04879 8.58504 5.95039 8.68316 5.82921 8.68316C5.70803 8.68316 5.60973 8.58504 5.60973 8.46358V7.58555C5.60973 7.46419 5.70803 7.36607 5.82921 7.36607C5.95039 7.36607 6.04879 7.46419 6.04879 7.58555ZM4.51212 11.0977H4.29264V11.5368C4.29264 11.6581 4.19433 11.7563 4.07315 11.7563C3.95197 11.7563 3.85358 11.6581 3.85358 11.5368V11.0977H3.63409C3.51291 11.0977 3.41461 10.9996 3.41461 10.8782C3.41461 10.7569 3.51291 10.6588 3.63409 10.6588H4.51212C4.6333 10.6588 4.7317 10.7569 4.7317 10.8782C4.7317 10.9996 4.6333 11.0977 4.51212 11.0977H4.51212ZM4.95118 10.2197C4.83 10.2197 4.7317 10.1216 4.7317 10.0002V9.56114H4.51212C4.39094 9.56114 4.29264 9.46302 4.29264 9.34166C4.29264 9.2202 4.39094 9.12208 4.51212 9.12208H5.39025C5.51143 9.12208 5.60973 9.22021 5.60973 9.34166C5.60973 9.46303 5.51143 9.56114 5.39025 9.56114H5.17067V10.0002C5.17067 10.1216 5.07237 10.2197 4.95119 10.2197H4.95118ZM6.26827 11.0977H6.04879V11.5368C6.04879 11.6581 5.95039 11.7563 5.82921 11.7563C5.70803 11.7563 5.60973 11.6581 5.60973 11.5368V11.0977H5.39025C5.26907 11.0977 5.17067 10.9996 5.17067 10.8782C5.17067 10.7569 5.26907 10.6588 5.39025 10.6588H6.26828C6.38946 10.6588 6.48776 10.7569 6.48776 10.8782C6.48776 10.9996 6.38946 11.0977 6.26828 11.0977H6.26827ZM6.70734 10.2197C6.58616 10.2197 6.48776 10.1216 6.48776 10.0002V9.56114H6.26828C6.1471 9.56114 6.04879 9.46302 6.04879 9.34166C6.04879 9.2202 6.1471 9.12208 6.26828 9.12208H7.14631C7.26748 9.12208 7.36588 9.22021 7.36588 9.34166C7.36588 9.46303 7.26748 9.56114 7.14631 9.56114H6.92682V10.0002C6.92682 10.1216 6.82852 10.2197 6.70734 10.2197H6.70734ZM8.02443 11.0977H7.80485V11.5368C7.80485 11.6581 7.70655 11.7563 7.58537 11.7563C7.46419 11.7563 7.36588 11.6581 7.36588 11.5368V11.0977H7.14631C7.02513 11.0977 6.92682 10.9996 6.92682 10.8782C6.92682 10.7569 7.02513 10.6588 7.14631 10.6588H8.02443C8.14561 10.6588 8.24392 10.7569 8.24392 10.8782C8.24392 10.9996 8.14561 11.0977 8.02443 11.0977H8.02443ZM8.4634 10.2197C8.34222 10.2197 8.24391 10.1216 8.24391 10.0002V9.56114H8.02443C7.90325 9.56114 7.80485 9.46302 7.80485 9.34166C7.80485 9.2202 7.90325 9.12208 8.02443 9.12208H8.90246C9.02364 9.12208 9.12194 9.22021 9.12194 9.34166C9.12194 9.46303 9.02364 9.56114 8.90246 9.56114H8.68297V10.0002C8.68297 10.1216 8.58458 10.2197 8.4634 10.2197H8.4634ZM9.78049 11.0977H9.561V11.5368C9.561 11.6581 9.4627 11.7563 9.34152 11.7563C9.22034 11.7563 9.12194 11.6581 9.12194 11.5368V11.0977H8.90246C8.78128 11.0977 8.68298 10.9996 8.68298 10.8782C8.68298 10.7569 8.78128 10.6588 8.90246 10.6588H9.78049C9.90167 10.6588 10.0001 10.7569 10.0001 10.8782C10.0001 10.9996 9.90167 11.0977 9.78049 11.0977H9.78049ZM10.2195 10.2197C10.0984 10.2197 10.0001 10.1216 10.0001 10.0002V9.56114H9.78049C9.65931 9.56114 9.56101 9.46302 9.56101 9.34166C9.56101 9.2202 9.65931 9.12208 9.78049 9.12208H10.6586C10.7798 9.12208 10.8781 9.22021 10.8781 9.34166C10.8781 9.46303 10.7798 9.56114 10.6586 9.56114H10.439V10.0002C10.439 10.1216 10.3407 10.2197 10.2196 10.2197H10.2195ZM11.5366 11.0977H11.3172V11.5368C11.3172 11.6581 11.2188 11.7563 11.0976 11.7563C10.9764 11.7563 10.8781 11.6581 10.8781 11.5368V11.0977H10.6586C10.5374 11.0977 10.439 10.9996 10.439 10.8782C10.439 10.7569 10.5374 10.6588 10.6586 10.6588H11.5366C11.6578 10.6588 11.7561 10.7569 11.7561 10.8782C11.7561 10.9996 11.6578 11.0977 11.5366 11.0977H11.5366ZM13.7318 8.39298C13.7318 8.43202 13.7002 8.46363 13.6611 8.46363H12.6343V8.02466H13.7318L13.7318 8.39298ZM12.6342 7.14654H13.7318V7.5856H12.6342V7.14654ZM13.7318 6.70757H12.6342V6.33916C12.6342 6.3003 12.6659 6.26851 12.7049 6.26851H13.6611C13.7002 6.26851 13.7318 6.3003 13.7318 6.33916L13.7318 6.70757Z" fill="white"/>
</svg>
