<svg width="16" height="16" viewBox="0 0 16 16" fill="none" xmlns="http://www.w3.org/2000/svg">
<path d="M10.7199 7.56287C11.4845 6.82626 11.9245 5.81035 11.9414 4.74297C11.9583 3.67547 11.5505 2.64601 10.8095 1.88499C10.0685 1.12418 9.05625 0.695679 7.99993 0.695679C6.94361 0.695679 5.93136 1.12418 5.19037 1.88499C4.44939 2.64592 4.04153 3.67541 4.05848 4.74297C4.07531 5.81035 4.51539 6.82626 5.27991 7.56287C4.35315 7.86352 3.54473 8.45363 2.97091 9.24823C2.39709 10.0428 2.08759 11.001 2.08691 11.9846C2.08691 12.8651 2.43305 13.7095 3.0491 14.332C3.66515 14.9546 4.50075 15.3044 5.37196 15.3044H10.6281H10.628C11.4992 15.3044 12.3348 14.9546 12.9508 14.332C13.5669 13.7095 13.913 12.8651 13.913 11.9846C13.9123 11.001 13.6028 10.0428 13.029 9.24823C12.4552 8.45361 11.6468 7.86352 10.72 7.56287H10.7199Z" fill="white"/>
</svg>
